<svg width="70" height="70" viewBox="0 0 70 70" fill="none" xmlns="http://www.w3.org/2000/svg">
<path d="M47.2208 5.83337H22.7791C12.1624 5.83337 5.83325 12.1625 5.83325 22.7792V47.1917C5.83325 57.8375 12.1624 64.1667 22.7791 64.1667H47.1916C57.8083 64.1667 64.1374 57.8375 64.1374 47.2209V22.7792C64.1666 12.1625 57.8374 5.83337 47.2208 5.83337ZM50.3416 29.05L43.6041 37.7417C42.7583 38.8209 41.5624 39.5209 40.1916 39.6667C38.8208 39.8417 37.4791 39.4625 36.3999 38.6167L31.0624 34.4167C30.8583 34.2417 30.6249 34.2417 30.5083 34.2709C30.3916 34.2709 30.1874 34.3292 30.0124 34.5625L23.0708 43.575C22.6333 44.1292 21.9916 44.4209 21.3499 44.4209C20.8833 44.4209 20.4166 44.275 20.0083 43.9542C19.0458 43.225 18.8708 41.8542 19.5999 40.8917L26.5416 31.8792C27.3874 30.8 28.5833 30.1 29.9541 29.925C31.2958 29.75 32.6666 30.1292 33.7458 30.975L39.0833 35.175C39.2874 35.35 39.4916 35.35 39.6374 35.3209C39.7541 35.3209 39.9583 35.2625 40.1333 35.0292L46.8708 26.3375C47.5999 25.375 48.9999 25.2 49.9333 25.9584C50.8958 26.7459 51.0708 28.1167 50.3416 29.05Z" fill="white"/>
</svg>
