<svg width="27" height="27" viewBox="0 0 27 27" fill="none" xmlns="http://www.w3.org/2000/svg">
<path d="M22.091 24.5455H20.7447L20.757 24.5099C21.108 23.0593 21.2871 21.5694 21.2871 20.0819C21.2871 18.9172 21.1669 17.7452 20.9288 16.6001C19.9163 11.7303 17.2642 7.56248 13.4608 4.8649C12.9773 4.5225 11.453 3.49038 9.81827 2.82393V1.22729C9.81827 0.549809 9.26846 0 8.59098 0C7.9135 0 7.36369 0.549809 7.36369 1.22729V3.68181V24.5454H4.90917C4.23169 24.5454 3.68188 25.0952 3.68188 25.7727C3.68188 26.4502 4.23169 27 4.90917 27H8.59098H19.0437H22.091C22.7685 27 23.3183 26.4502 23.3183 25.7727C23.3183 25.0952 22.7685 24.5455 22.091 24.5455ZM12.2728 12.2727H14.7273C15.4048 12.2727 15.9546 12.8225 15.9546 13.5C15.9546 14.1775 15.4048 14.7273 14.7273 14.7273H12.2728C11.5953 14.7273 11.0455 14.1775 11.0455 13.5C11.0455 12.8225 11.5954 12.2727 12.2728 12.2727ZM15.9546 22.0909H12.2728C11.5953 22.0909 11.0455 21.5411 11.0455 20.8636C11.0455 20.1862 11.5953 19.6363 12.2728 19.6363H15.9546C16.6321 19.6363 17.1819 20.1861 17.1819 20.8636C17.1819 21.5411 16.6321 22.0909 15.9546 22.0909ZM15.9546 18.4091H12.2728C11.5953 18.4091 11.0455 17.8593 11.0455 17.1818C11.0455 16.5043 11.5953 15.9545 12.2728 15.9545H15.9546C16.6321 15.9545 17.1819 16.5043 17.1819 17.1818C17.1819 17.8593 16.6321 18.4091 15.9546 18.4091Z" fill="white"/>
</svg>
