<svg width="70" height="70" viewBox="0 0 70 70" fill="none" xmlns="http://www.w3.org/2000/svg">
<path d="M61.25 28.4375H63.4375C64.75 28.4375 65.625 27.5625 65.625 26.25C65.625 24.9375 64.75 24.0625 63.4375 24.0625H57.3125L54.6875 17.5C52.9375 13.5625 49 10.9375 44.625 10.9375H25.5938C21 10.9375 17.0625 13.5625 15.3125 17.5L12.4688 24.0625H6.5625C5.25 24.0625 4.375 24.9375 4.375 26.25C4.375 27.5625 5.25 28.4375 6.5625 28.4375H8.75C6.125 30.4062 4.375 33.6875 4.375 37.1875V45.9375C4.375 47.9062 5.25 49.6562 6.5625 50.75V54.6875C6.5625 58.4062 9.40625 61.25 13.125 61.25H17.5C21.2188 61.25 24.0625 58.4062 24.0625 54.6875V52.5H45.9375V54.6875C45.9375 58.4062 48.7812 61.25 52.5 61.25H56.875C60.5938 61.25 63.4375 58.4062 63.4375 54.6875V50.75C64.75 49.6562 65.625 47.9062 65.625 45.9375V37.1875C65.625 33.6875 63.875 30.4062 61.25 28.4375ZM59.0625 39.375C59.0625 40.6875 58.1875 41.5625 56.875 41.5625H50.3125C49 41.5625 48.125 40.6875 48.125 39.375C48.125 38.0625 49 37.1875 50.3125 37.1875H56.875C58.1875 37.1875 59.0625 38.0625 59.0625 39.375ZM13.125 37.1875H19.6875C21 37.1875 21.875 38.0625 21.875 39.375C21.875 40.6875 21 41.5625 19.6875 41.5625H13.125C11.8125 41.5625 10.9375 40.6875 10.9375 39.375C10.9375 38.0625 11.8125 37.1875 13.125 37.1875ZM22.75 48.125L25.375 43.0938C26.4688 40.9063 28.6562 39.375 31.2812 39.375H38.9375C41.3438 39.375 43.75 40.6875 44.8438 43.0938L47.4688 48.125H22.75ZM19.4687 19.25C20.5625 16.8438 22.75 15.3125 25.375 15.3125H44.4062C47.0312 15.3125 49.4375 16.8438 50.5312 19.25L53.5938 26.25H16.4062L19.4687 19.25Z" fill="white"/>
</svg>
