<svg width="70" height="70" viewBox="0 0 70 70" fill="none" xmlns="http://www.w3.org/2000/svg">
<path d="M64.7499 60.5938C61.6874 58.1875 56.8749 58.1875 53.8124 60.5938H53.5937L56.6562 52.9375L34.7811 43.75L13.1249 52.9375L16.1874 60.5938H15.9686C12.9061 58.1875 8.09365 58.1875 5.03115 60.5938C4.15615 61.25 3.9374 62.7812 4.8124 63.6562C5.46865 64.5312 6.9999 64.75 7.8749 63.875C9.40615 62.7813 11.8124 62.7813 13.3436 63.875C14.8749 65.1875 16.8436 65.625 18.8124 65.625C20.7811 65.625 22.7499 64.9688 24.2811 63.875C25.8124 62.7813 28.2186 62.7813 29.7499 63.875C32.8124 66.2813 37.6249 66.2813 40.6874 63.875C42.2187 62.7813 44.6249 62.7813 46.1562 63.875C49.2187 66.2813 54.0312 66.2813 57.0937 63.875C58.6249 62.7813 61.0312 62.7813 62.5624 63.875C63.4374 64.5313 64.9687 64.5312 65.6249 63.6562C65.8437 62.7812 65.8437 61.4688 64.7499 60.5938Z" fill="white"/>
<path d="M11.5938 49L34.125 39.5938C34.3438 39.5938 34.5625 39.375 35 39.375C35.2188 39.375 35.6562 39.375 35.875 39.5938L58.4063 49L61.0312 42.4375C61.25 41.7812 61.25 41.3438 61.0312 40.6875C60.8125 40.25 60.375 39.8125 59.7188 39.5938L52.5 36.75V24.0625C52.5 20.3437 49.6562 17.5 45.9375 17.5H41.5625V8.75C41.5625 8.09375 41.3438 7.65625 40.9063 7.21875C37.625 3.9375 32.375 3.9375 29.0938 7.21875C28.6563 7.65625 28.4375 8.09375 28.4375 8.75V17.5H24.0625C20.3438 17.5 17.5 20.3437 17.5 24.0625V36.75L10.2812 39.375C9.625 39.5938 9.1875 40.0312 8.96875 40.4688C8.75 40.9062 8.75 41.5625 8.96875 42.2188L11.5938 49ZM26.25 24.0625H43.75C45.0625 24.0625 45.9375 24.9375 45.9375 26.25C45.9375 27.5625 45.0625 28.4375 43.75 28.4375H26.25C24.9375 28.4375 24.0625 27.5625 24.0625 26.25C24.0625 24.9375 24.9375 24.0625 26.25 24.0625Z" fill="white"/>
</svg>
