<svg width="26" height="26" viewBox="0 0 26 26" fill="none" xmlns="http://www.w3.org/2000/svg">
<path d="M0 6.54261V9.38889H4.06467L0 6.54261ZM3.36844 22.3889H9.38889V18.1733L3.36844 22.3889ZM16.6111 18.174V22.3889H22.6308L16.6111 18.174ZM0 16.6111V19.4574L4.06611 16.6111H0ZM22.6323 3.61111H16.6111V7.82672L22.6323 3.61111ZM26 19.4581V16.6111H21.9332L26 19.4581ZM26 9.38889V6.54261L21.9346 9.38889H26ZM9.38889 3.61111H3.36844L9.38889 7.82672V3.61111Z" fill="#00247D"/>
<path d="M18.1566 16.6111L25.1708 21.5229C25.5133 21.17 25.7595 20.7351 25.8858 20.2598L20.6749 16.6111H18.1566ZM9.38878 16.6111H7.8425L0.829004 21.5222C1.20528 21.905 1.68773 22.1787 2.22867 22.3058L9.38878 17.2922V16.6111ZM16.611 9.38889H18.1573L25.1708 4.47778C24.788 4.08942 24.3029 3.81769 23.7718 3.69417L16.611 8.70783V9.38889ZM7.8425 9.38889L0.829004 4.47778C0.486636 4.83093 0.240258 5.26576 0.113281 5.74095L5.32411 9.38889H7.8425Z" fill="#CF1B2B"/>
<path d="M26 15.1667H15.1667V22.3889H16.6111V18.174L22.6308 22.3889H23.1111C23.4948 22.3889 23.8746 22.3124 24.2283 22.1637C24.5821 22.015 24.9025 21.7971 25.1709 21.5229L18.1567 16.6111H20.6751L25.8859 20.2598C25.9531 20.0164 26 19.7643 26 19.5V19.4581L21.9332 16.6111H26V15.1667ZM0 15.1667V16.6111H4.06611L0 19.4574V19.5C0 20.2879 0.317056 21.0008 0.829111 21.5222L7.84261 16.6111H9.38889V17.2922L2.22878 22.3051C2.44111 22.3557 2.66067 22.3889 2.88889 22.3889H3.36844L9.38889 18.1733V22.3889H10.8333V15.1667H0ZM26 6.5C26.0004 5.7431 25.7025 5.01652 25.1709 4.47778L18.1574 9.38889H16.6111V8.70783L23.7719 3.69417C23.5556 3.6411 23.3339 3.61323 23.1111 3.61111H22.6323L16.6111 7.82672V3.61111H15.1667V10.8333H26V9.38889H21.9346L26 6.54261V6.5ZM9.38889 3.61111V7.82672L3.36844 3.61111H2.88889C2.50512 3.61094 2.12519 3.68753 1.77145 3.83637C1.41771 3.98521 1.09732 4.20328 0.829111 4.47778L7.84261 9.38889H5.32422L0.113389 5.74094C0.0417301 5.98773 0.00359191 6.24304 0 6.5L0 6.54261L4.06467 9.38889H0V10.8333H10.8333V3.61111H9.38889Z" fill="#EEEEEE"/>
<path d="M15.1667 10.8333V3.61111H10.8333V10.8333H0V15.1667H10.8333V22.3889H15.1667V15.1667H26V10.8333H15.1667Z" fill="#CF1B2B"/>
</svg>
