<svg width="70" height="70" viewBox="0 0 70 70" fill="none" xmlns="http://www.w3.org/2000/svg">
<g clip-path="url(#clip0_20_429)">
<path d="M16.3691 17.6812V13.3909C16.3691 11.5458 17.8657 10.0482 19.7118 10.0482H30.4077C32.2539 10.0482 33.7505 11.5458 33.7505 13.3909V17.6812C33.7505 18.2387 33.601 18.7569 33.3593 19.219H36.6406C36.3988 18.7569 36.2494 18.2387 36.2494 17.6812V13.3909C36.2494 11.5458 37.7459 10.0482 39.5922 10.0482H50.2881C52.1342 10.0482 53.6307 11.5458 53.6307 13.3909V17.6812C53.6307 18.2387 53.4814 18.7569 53.2397 19.219H60.5144V7.6054C60.5144 5.22705 58.5867 3.29822 56.2073 3.29822H13.7925C11.4134 3.29822 9.48535 5.22705 9.48535 7.6054V19.2191H16.76C16.5186 18.757 16.3691 18.2387 16.3691 17.6812Z" fill="white"/>
<path d="M60.5144 21.2095H9.48551L0.510742 44.3562H69.4892L60.5144 21.2095Z" fill="white"/>
<path d="M0 46.0223V53.4337C0 55.9826 2.06555 58.0483 4.61453 58.0483H65.3855C67.9343 58.0483 70 55.9827 70 53.4337V46.0223H0Z" fill="white"/>
<path d="M9.5777 66.7018H17.854L18.6065 60.2188H8.8252L9.5777 66.7018Z" fill="white"/>
<path d="M52.147 66.7018H60.4222L61.1746 60.2188H51.3933L52.147 66.7018Z" fill="white"/>
</g>
<defs>
<clipPath id="clip0_20_429">
<rect width="70" height="70" fill="white"/>
</clipPath>
</defs>
</svg>
