<svg width="32" height="32" viewBox="0 0 32 32" fill="none" xmlns="http://www.w3.org/2000/svg">
<path fill-rule="evenodd" clip-rule="evenodd" d="M9.35075 20.7535C8.24376 19.6232 7.49292 18.1928 7.19139 16.6396C6.88736 15.0821 7.04349 13.4698 7.64067 11.9996C8.23276 10.5376 9.2436 9.28321 10.5463 8.39384C13.1893 6.58872 16.6687 6.58872 19.3117 8.39384C20.6144 9.28321 21.6253 10.5376 22.2173 11.9996C22.8145 13.4698 22.9707 15.0821 22.6665 16.6396C22.3651 18.1928 21.6143 19.6232 20.5072 20.7535C19.0412 22.2579 17.0297 23.1064 14.9289 23.1064C12.8283 23.1064 10.8168 22.2579 9.35075 20.7535Z" stroke="white" stroke-width="2" stroke-linecap="round" stroke-linejoin="round"/>
<path d="M21.3019 19.9512C20.9267 19.5767 20.9982 20.2554 20.6237 20.6307C20.249 21.0058 19.5703 20.9356 19.9455 21.3101L21.3019 19.9512ZM24.2821 25.639C24.6574 26.0137 25.2652 26.0132 25.6398 25.6379C26.0144 25.2626 26.0138 24.6549 25.6386 24.2802L24.2821 25.639ZM19.9455 21.3101L24.2821 25.639L25.6386 24.2802L21.3019 19.9512L19.9455 21.3101Z" fill="white"/>
</svg>
