<svg width="70" height="70" viewBox="0 0 70 70" fill="none" xmlns="http://www.w3.org/2000/svg">
<g clip-path="url(#clip0_20_408)">
<path d="M0 21.6546V59.8187C0 62.4527 2.13609 64.5909 4.77641 64.5909H10.7412V16.8824H4.77641C2.13609 16.8824 0 19.0165 0 21.6546Z" fill="white"/>
<path d="M65.2279 16.8824H59.2632V64.591H65.2279C67.8639 64.591 70.0001 62.4527 70.0001 59.8188V21.6546C70.0001 19.0165 67.8639 16.8824 65.2279 16.8824Z" fill="white"/>
<path d="M24.5328 26.0978C24.0652 26.5653 24.0652 27.3236 24.5328 27.7902C25.0005 28.2579 25.7577 28.2579 26.2253 27.7902C26.693 27.3236 26.693 26.5655 26.2253 26.0978C25.7577 25.6311 25.0004 25.6311 24.5328 26.0978Z" fill="white"/>
<path d="M48.4626 9.30539C48.4626 7.15576 46.7109 5.40918 44.5664 5.40918H25.438C23.2893 5.40918 21.5416 7.15576 21.5416 9.30539V16.8823H15.5134V64.5909H54.491V16.8825H48.4626V9.30539ZM39.036 34.6934L33.1274 40.6018C32.5036 41.2247 31.4934 41.2247 30.8694 40.6018L21.7136 31.4459C21.4146 31.1459 21.2459 30.7396 21.2459 30.3169V24.4072C21.2459 23.5262 21.9615 22.8116 22.8426 22.8116H28.7511C29.175 22.8116 29.5811 22.9793 29.8812 23.2793L39.0362 32.4352C39.6586 33.0581 39.6586 34.0694 39.036 34.6934ZM43.6894 16.8825H26.3149V10.1834H43.6894V16.8825Z" fill="white"/>
</g>
<defs>
<clipPath id="clip0_20_408">
<rect width="70" height="70" fill="white"/>
</clipPath>
</defs>
</svg>
