<svg width="70" height="70" viewBox="0 0 70 70" fill="none" xmlns="http://www.w3.org/2000/svg">
<g clip-path="url(#clip0_20_436)">
<path d="M66.4102 12.5645C68.3928 12.5645 70 14.1718 70 16.1543V53.8467C69.9999 55.8292 68.3927 57.4365 66.4102 57.4365H3.58984C1.60737 57.4365 9.23503e-05 55.8292 0 53.8467V16.1543C0 14.1718 1.60732 12.5645 3.58984 12.5645H66.4102ZM44.1074 25.9326C39.3758 25.9327 36.0429 28.3155 36.0146 31.7305C35.9879 34.2548 38.3938 35.6636 40.21 36.5039C42.074 37.365 42.7011 37.9136 42.6924 38.6826C42.6806 39.8601 41.2035 40.3984 39.8271 40.3984C37.9106 40.3984 36.892 40.1315 35.3193 39.4756L34.7031 39.1973L34.0303 43.1299C35.1487 43.6202 37.2178 44.0454 39.3652 44.0674C44.3987 44.0672 47.6658 41.7112 47.7031 38.0645C47.7209 36.0661 46.4453 34.5449 43.6826 33.291C42.0091 32.4785 40.9843 31.9361 40.9951 31.1133C40.9953 30.3831 41.8629 29.6025 43.7373 29.6025C45.3031 29.5783 46.4375 29.9196 47.3213 30.2754L47.75 30.4785L48.3994 26.6709C47.4508 26.315 45.9638 25.9326 44.1074 25.9326ZM26.3125 43.8604H31.0996L34.0957 26.292H29.3066L26.3125 43.8604ZM57.0215 26.291C55.8755 26.2911 55.018 26.6045 54.5146 27.748L47.4023 43.8486H52.4307C52.4307 43.8486 53.2535 41.6832 53.4395 41.208C53.9911 41.208 58.874 41.2158 59.5723 41.2158C59.7155 41.8309 60.1543 43.8486 60.1543 43.8486H64.5977L60.7217 26.291H57.0215ZM17.5596 38.2725L17.0596 35.8379C16.1868 33.0313 13.4676 29.9901 10.4277 28.4678L14.7148 43.832L19.7812 43.8262L27.3193 26.291H22.2471L17.5596 38.2725ZM57.7178 32.5625C57.7178 32.5625 58.6344 36.7558 58.8262 37.6357H54.8516C55.2477 36.623 56.7588 32.7246 56.7588 32.7246C56.7304 32.7715 57.1527 31.7075 57.3945 31.0479L57.7178 32.5625ZM5.06152 24L5 24.3662C11.0072 25.8204 14.9824 29.3345 16.6328 33.5566L14.9531 25.4834C14.6633 24.3711 13.8231 24.0389 12.7832 24H5.06152Z" fill="white"/>
</g>
<defs>
<clipPath id="clip0_20_436">
<rect width="70" height="70" fill="white"/>
</clipPath>
</defs>
</svg>
